<?xml version="1.0" standalone="no"?>
<!DOCTYPE svg PUBLIC "-//W3C//DTD SVG 20010904//EN"
 "http://www.w3.org/TR/2001/REC-SVG-20010904/DTD/svg10.dtd">
<svg version="1.0" xmlns="http://www.w3.org/2000/svg"
 width="256.000000pt" height="256.000000pt" viewBox="0 0 256.000000 256.000000"
 preserveAspectRatio="xMidYMid meet">
<metadata>
Created by potrace 1.14, written by Peter Selinger 2001-2017
</metadata>
<g transform="translate(0.000000,256.000000) scale(0.100000,-0.100000)"
fill="#000000" stroke="none">
<path d="M1095 2368 c-259 -26 -404 -62 -565 -140 -124 -60 -221 -147 -239
-214 -7 -26 -11 -282 -11 -752 -1 -547 -4 -712 -13 -712 -9 0 -9 -2 0 -8 6 -4
10 -24 9 -44 -2 -21 0 -35 4 -33 5 3 10 -2 13 -10 4 -10 1 -12 -11 -9 -9 2 -7
-1 6 -7 23 -13 29 -33 12 -44 -6 -4 -8 -11 -4 -16 3 -5 10 -7 15 -3 5 3 7 10
4 15 -4 5 -1 9 4 9 6 0 11 -7 11 -16 0 -8 4 -13 9 -10 5 3 14 -1 21 -9 9 -10
9 -15 1 -15 -6 0 -11 4 -11 9 0 11 -26 8 -37 -4 -4 -4 -3 -5 3 -2 6 4 19 0 30
-7 10 -8 23 -12 29 -9 15 5 98 -75 90 -86 -7 -12 22 -8 32 5 4 5 4 6 -1 2 -11
-9 -36 9 -36 26 0 6 5 4 10 -4 5 -8 13 -15 17 -16 19 -2 43 -17 43 -26 0 -6
-8 -4 -17 3 -16 12 -17 12 -6 -2 7 -9 9 -20 5 -25 -4 -4 0 -3 8 3 17 13 60 14
60 1 0 -4 7 -5 15 -2 8 4 15 1 15 -6 0 -6 -4 -8 -10 -5 -5 3 -10 2 -10 -3 0
-14 37 -21 48 -10 6 6 17 1 31 -14 12 -12 34 -24 48 -25 14 -1 23 1 19 4 -3 3
-15 6 -27 7 -12 0 -24 8 -26 16 -3 10 -2 11 4 4 7 -10 22 -14 66 -15 9 0 17
-5 17 -10 0 -6 -5 -7 -12 -3 -6 4 -3 -4 8 -18 13 -17 21 -22 27 -14 5 8 10 7
17 -4 7 -11 10 -11 10 -2 0 8 5 10 13 6 6 -4 8 -3 4 1 -7 9 -28 15 -55 17 -15
2 -6 11 13 14 8 1 15 -1 15 -6 0 -5 11 -7 25 -6 14 2 22 -1 18 -6 -3 -6 2 -8
13 -4 22 7 57 -12 37 -21 -7 -2 -13 -10 -13 -16 1 -7 9 -3 18 9 17 20 54 26
77 12 6 -3 18 -4 28 -3 9 2 15 -1 11 -6 -7 -12 3 -11 28 2 16 9 19 8 12 -3
-13 -20 -14 -38 -2 -38 6 0 8 7 4 15 -8 21 11 19 23 -2 14 -25 14 -7 -1 20
-10 19 -9 20 4 10 8 -7 19 -9 23 -5 5 4 5 1 1 -6 -8 -13 6 -17 18 -4 10 10 76
10 70 0 -3 -5 -11 -5 -17 -2 -7 4 -9 4 -5 -1 4 -4 2 -15 -4 -24 -10 -13 -9
-13 7 1 20 17 48 19 61 5 11 -10 24 -8 24 4 0 5 -4 8 -9 4 -5 -3 -12 -1 -16 5
-4 6 -12 7 -18 4 -7 -4 -8 -3 -4 2 5 5 60 9 123 9 109 0 114 -1 108 -20 -4
-15 -3 -16 4 -6 6 8 19 12 31 8 12 -3 19 -1 15 4 -3 5 -12 9 -20 9 -8 0 -12 5
-9 10 4 7 12 7 25 0 24 -13 33 -13 25 0 -4 6 -3 10 2 9 4 -1 10 0 13 1 3 1 25
3 50 5 48 4 74 9 101 20 10 3 20 1 24 -4 3 -6 11 -9 16 -5 5 3 7 9 4 13 -2 5
6 8 18 7 12 -1 26 3 30 9 5 6 7 4 6 -5 -1 -8 -1 -22 0 -30 1 -12 4 -12 12 3 7
12 18 16 37 12 25 -5 25 -5 5 4 -13 6 -23 16 -22 23 0 10 2 10 6 0 2 -6 9 -9
14 -6 6 3 16 1 23 -5 9 -8 13 -7 13 4 0 8 -4 12 -8 9 -4 -2 -11 1 -15 7 -4 7
-3 9 4 5 6 -3 13 -2 17 3 3 6 13 7 21 4 11 -4 12 -9 5 -16 -6 -6 -11 -16 -11
-21 0 -6 5 -3 11 7 6 9 15 15 21 11 6 -4 6 2 -1 15 -7 12 -8 21 -4 20 4 -1 11
0 16 1 4 1 10 3 15 4 4 1 17 7 30 14 12 7 22 9 22 5 0 -4 5 -1 11 7 9 13 10
13 6 0 -2 -8 -10 -14 -16 -12 -7 1 -10 -2 -6 -8 4 -6 12 -5 25 2 10 7 17 15
15 18 -2 3 12 15 30 27 21 14 37 19 40 13 4 -6 11 -8 16 -5 5 4 9 1 9 -6 0 -7
2 -10 5 -7 3 3 2 13 -1 22 -5 14 -9 15 -15 4 -5 -7 -9 -8 -9 -2 0 10 46 48 65
54 6 1 16 11 23 21 9 13 21 18 38 15 14 -3 22 -1 19 5 -4 5 -10 7 -15 4 -5 -3
-11 -1 -15 5 -3 5 1 10 9 10 8 0 18 4 21 10 4 6 -1 7 -12 4 -13 -4 -11 0 7 16
14 12 19 19 13 15 -9 -4 -11 -1 -7 9 3 9 9 14 13 11 4 -2 5 10 3 27 -3 18 -1
28 5 25 5 -3 10 0 10 8 0 8 -4 12 -8 9 -5 -3 -9 320 -9 717 0 524 -3 733 -12
762 -42 140 -291 276 -608 331 -166 29 -406 39 -555 24z m706 -2221 c-10 -9
-11 -8 -5 6 3 10 9 15 12 12 3 -3 0 -11 -7 -18z"/>
<path d="M2210 360 c0 -5 5 -10 11 -10 5 0 7 5 4 10 -3 6 -8 10 -11 10 -2 0
-4 -4 -4 -10z"/>
<path d="M2158 323 c-16 -19 -14 -43 4 -43 6 0 4 7 -3 17 -12 14 -12 16 1 11
11 -4 16 0 16 13 0 23 1 23 -18 2z"/>
<path d="M2195 329 c-4 -6 -5 -12 -2 -15 2 -3 7 2 10 11 7 17 1 20 -8 4z"/>
<path d="M364 314 c-18 -14 -18 -14 4 -4 21 10 26 7 23 -13 -1 -5 3 -6 9 -2 5
3 10 -2 11 -12 0 -11 3 -13 6 -5 2 6 9 10 14 6 21 -12 7 4 -20 24 -26 19 -31
19 -47 6z"/>
<path d="M2085 271 c-3 -5 -2 -12 3 -15 5 -3 9 1 9 9 0 17 -3 19 -12 6z"/>
<path d="M430 260 c0 -5 5 -10 11 -10 5 0 7 5 4 10 -3 6 -8 10 -11 10 -2 0 -4
-4 -4 -10z"/>
<path d="M2070 229 c0 -5 5 -7 10 -4 6 3 10 8 10 11 0 2 -4 4 -10 4 -5 0 -10
-5 -10 -11z"/>
<path d="M470 220 c0 -5 7 -7 15 -4 8 4 15 8 15 10 0 2 -7 4 -15 4 -8 0 -15
-4 -15 -10z"/>
<path d="M550 211 c0 -7 -4 -10 -8 -7 -5 3 -9 -2 -9 -10 0 -13 2 -13 16 0 8 9
12 19 8 22 -4 4 -7 2 -7 -5z"/>
<path d="M1966 213 c-4 -5 -12 -8 -17 -8 -5 0 -9 -3 -9 -7 0 -31 1 -32 10 -18
5 8 15 15 21 15 7 0 14 6 17 13 4 13 -10 16 -22 5z"/>
<path d="M646 176 c6 -15 4 -17 -6 -11 -9 6 -11 4 -5 -4 5 -9 10 -10 18 -2 8
8 7 14 -2 24 -10 10 -11 8 -5 -7z"/>
<path d="M1910 156 c0 -2 8 -10 18 -17 15 -13 16 -12 3 4 -13 16 -21 21 -21
13z"/>
<path d="M1746 134 c-9 -24 -2 -26 12 -4 7 11 8 20 3 20 -5 0 -12 -7 -15 -16z"/>
<path d="M737 133 c-10 -9 -9 -23 1 -23 5 0 9 7 9 15 0 17 -1 18 -10 8z"/>
<path d="M1680 131 c-8 -6 -18 -7 -22 -5 -4 3 -8 1 -8 -4 0 -6 7 -13 16 -16 8
-3 12 -2 9 4 -6 9 8 14 28 11 4 0 7 4 7 9 0 12 -10 13 -30 1z"/>
<path d="M927 106 c-3 -6 7 -12 22 -12 14 -1 20 1 13 3 -6 3 -10 8 -8 12 3 4
-1 8 -9 8 -8 0 -16 -5 -18 -11z"/>
<path d="M976 106 c7 -19 20 -21 30 -3 4 6 4 9 -1 5 -4 -4 -14 -3 -22 4 -11 8
-12 7 -7 -6z"/>
<path d="M1546 112 c-2 -4 -1 -14 4 -22 7 -11 9 -9 7 8 -1 24 -3 26 -11 14z"/>
<path d="M1573 107 c-3 -5 -2 -11 1 -14 3 -4 6 0 6 7 0 9 5 7 15 -6 15 -18 15
-18 8 0 -4 11 -2 17 3 13 6 -3 16 -2 23 3 9 5 2 7 -19 6 -17 0 -34 -5 -37 -9z"/>
<path d="M1695 100 c3 -5 8 -10 11 -10 2 0 4 5 4 10 0 6 -5 10 -11 10 -5 0 -7
-4 -4 -10z"/>
<path d="M1141 86 c-10 -12 -9 -14 5 -12 10 2 20 8 22 14 5 17 -13 15 -27 -2z"/>
<path d="M1276 88 c3 -5 9 -6 14 -3 4 3 11 -1 13 -7 4 -8 6 -7 6 4 1 11 -6 16
-18 15 -11 0 -17 -5 -15 -9z"/>
<path d="M1325 90 c-4 -6 1 -7 11 -3 11 4 15 3 11 -4 -4 -7 0 -10 10 -9 10 2
18 7 18 11 0 12 -43 16 -50 5z"/>
<path d="M1405 80 c8 -9 12 -20 8 -25 -5 -4 -2 -5 5 -1 11 6 11 11 0 24 -11
13 -10 15 5 9 10 -4 16 -3 12 2 -3 6 -14 9 -25 8 -17 -1 -18 -3 -5 -17z"/>
</g>
</svg>
